<svg width="36" height="23" viewBox="0 0 36 23" fill="none" xmlns="http://www.w3.org/2000/svg">
<path opacity="0.2" d="M3.08571 5.14281C3.08571 4.59722 3.30244 4.07398 3.68823 3.68819C4.07402 3.3024 4.59726 3.08566 5.14285 3.08566H33.9429C34.4884 3.08566 35.0117 3.3024 35.3975 3.68819C35.7833 4.07398 36 4.59722 36 5.14281V10.5737C36 10.7115 35.9177 10.8349 35.7943 10.8864" fill="#383838"/>
<path fill-rule="evenodd" clip-rule="evenodd" d="M0 3.08571C0 2.26733 0.325101 1.48247 0.903785 0.903785C1.48247 0.325101 2.26733 0 3.08571 0H31.8857C32.7041 0 33.489 0.325101 34.0676 0.903785C34.6463 1.48247 34.9714 2.26733 34.9714 3.08571V8.51657C34.9714 9.06995 34.6402 9.56572 34.1321 9.7776C33.8292 9.90414 33.5704 10.1175 33.3884 10.3907C33.2064 10.664 33.1093 10.9849 33.1093 11.3133C33.1093 11.6416 33.2064 11.9626 33.3884 12.2358C33.5704 12.5091 33.8292 12.7224 34.1321 12.8489C34.3808 12.9528 34.5932 13.128 34.7426 13.3524C34.8919 13.5768 34.9716 13.8404 34.9714 14.1099V19.5429C34.9714 20.3612 34.6463 21.1461 34.0676 21.7248C33.489 22.3035 32.7041 22.6286 31.8857 22.6286H3.08571C2.26733 22.6286 1.48247 22.3035 0.903785 21.7248C0.325101 21.1461 0 20.3612 0 19.5429V14.112C0 13.5586 0.3312 13.0629 0.839314 12.8489C1.14227 12.7224 1.40102 12.5091 1.58302 12.2358C1.76502 11.9626 1.86213 11.6416 1.86213 11.3133C1.86213 10.9849 1.76502 10.664 1.58302 10.3907C1.40102 10.1175 1.14227 9.90414 0.839314 9.7776C0.590922 9.67381 0.378737 9.49894 0.229409 9.27495C0.0800814 9.05096 0.000270195 8.78783 0 8.51863V3.08571ZM3.08571 2.05714C2.81292 2.05714 2.5513 2.16551 2.35841 2.35841C2.16551 2.5513 2.05714 2.81292 2.05714 3.08571V8.08663C4.54217 9.49166 4.54217 13.1369 2.05714 14.5419V19.5429C2.05714 19.8157 2.16551 20.0773 2.35841 20.2702C2.5513 20.4631 2.81292 20.5714 3.08571 20.5714H31.8857C32.1585 20.5714 32.4201 20.4631 32.613 20.2702C32.8059 20.0773 32.9143 19.8157 32.9143 19.5429V14.5419C30.4293 13.1369 30.4293 9.49166 32.9143 8.08663V3.08571C32.9143 2.81292 32.8059 2.5513 32.613 2.35841C32.4201 2.16551 32.1585 2.05714 31.8857 2.05714H3.08571Z" fill="#383838"/>
<path fill-rule="evenodd" clip-rule="evenodd" d="M22.6286 18C23.0378 18 23.4302 18.1626 23.7195 18.4519C24.0089 18.7413 24.1714 19.1337 24.1714 19.5429V20.5715C24.1714 20.9806 24.0089 21.3731 23.7195 21.6624C23.4302 21.9518 23.0378 22.1143 22.6286 22.1143C22.2194 22.1143 21.8269 21.9518 21.5376 21.6624C21.2483 21.3731 21.0857 20.9806 21.0857 20.5715V19.5429C21.0857 19.1337 21.2483 18.7413 21.5376 18.4519C21.8269 18.1626 22.2194 18 22.6286 18ZM22.6286 0.514313C23.0378 0.514313 23.4302 0.676863 23.7195 0.966205C24.0089 1.25555 24.1714 1.64798 24.1714 2.05717V3.08574C24.1714 3.49493 24.0089 3.88737 23.7195 4.17671C23.4302 4.46605 23.0378 4.6286 22.6286 4.6286C22.2194 4.6286 21.8269 4.46605 21.5376 4.17671C21.2483 3.88737 21.0857 3.49493 21.0857 3.08574V2.05717C21.0857 1.64798 21.2483 1.25555 21.5376 0.966205C21.8269 0.676863 22.2194 0.514313 22.6286 0.514313ZM22.6286 6.17146C23.0378 6.17146 23.4302 6.33401 23.7195 6.62335C24.0089 6.91269 24.1714 7.30512 24.1714 7.71431V8.74289C24.1714 9.15208 24.0089 9.54451 23.7195 9.83385C23.4302 10.1232 23.0378 10.2857 22.6286 10.2857C22.2194 10.2857 21.8269 10.1232 21.5376 9.83385C21.2483 9.54451 21.0857 9.15208 21.0857 8.74289V7.71431C21.0857 7.30512 21.2483 6.91269 21.5376 6.62335C21.8269 6.33401 22.2194 6.17146 22.6286 6.17146ZM22.6286 12.3429C23.0378 12.3429 23.4302 12.5054 23.7195 12.7948C24.0089 13.0841 24.1714 13.4766 24.1714 13.8857V14.9143C24.1714 15.3235 24.0089 15.7159 23.7195 16.0053C23.4302 16.2946 23.0378 16.4572 22.6286 16.4572C22.2194 16.4572 21.8269 16.2946 21.5376 16.0053C21.2483 15.7159 21.0857 15.3235 21.0857 14.9143V13.8857C21.0857 13.4766 21.2483 13.0841 21.5376 12.7948C21.8269 12.5054 22.2194 12.3429 22.6286 12.3429Z" fill="#383838"/>
</svg>
