<svg width="30" height="30" viewBox="0 0 30 30" fill="none" xmlns="http://www.w3.org/2000/svg">
<path d="M4.11111 15H1L15 1L29 15H25.8889M4.11111 15V25.8889C4.11111 26.714 4.43889 27.5053 5.02233 28.0888C5.60578 28.6722 6.3971 29 7.22222 29H22.7778C23.6029 29 24.3942 28.6722 24.9777 28.0888C25.5611 27.5053 25.8889 26.714 25.8889 25.8889V15" stroke="#383838" stroke-width="2" stroke-linecap="round" stroke-linejoin="round"/>
<path d="M10.3333 29V19.6666C10.3333 18.8415 10.6611 18.0502 11.2446 17.4667C11.828 16.8833 12.6193 16.5555 13.4445 16.5555H16.5556C17.3807 16.5555 18.172 16.8833 18.7555 17.4667C19.3389 18.0502 19.6667 18.8415 19.6667 19.6666V29" stroke="#383838" stroke-width="2" stroke-linecap="round" stroke-linejoin="round"/>
</svg>
